<svg width="42" height="43" viewBox="0 0 42 43" fill="none" xmlns="http://www.w3.org/2000/svg">
<path d="M12.1363 8.12199L8.56989 12.0911C8.18603 12.5183 8.4973 13.1976 9.0715 13.1858L33.0094 12.6943C33.5841 12.6825 33.867 11.9899 33.4648 11.5791L29.619 7.65053C29.5556 7.58577 29.4682 7.55011 29.3776 7.55201L12.6107 7.9045C12.4293 7.90831 12.2576 7.98704 12.1363 8.12199Z" fill="#222222"/>
<path d="M18.2072 31.8961L7.97705 13.2608L12.5335 8.56366L22.8159 27.6075L18.2072 31.8961Z" fill="white"/>
<path fill-rule="evenodd" clip-rule="evenodd" d="M7.4018 13.5766C7.26317 13.3241 7.30544 13.0106 7.50602 12.8039L12.0624 8.10674C12.208 7.95667 12.4164 7.88495 12.6235 7.91362C12.8306 7.94228 13.0116 8.06791 13.1109 8.25188L23.3934 27.2957C23.5354 27.5586 23.4818 27.8843 23.263 28.0879L18.6542 32.3766C18.5061 32.5144 18.3026 32.5762 18.1028 32.544C17.9031 32.5119 17.7293 32.3893 17.6319 32.2119L7.4018 13.5766ZM18.2072 31.8961L22.816 27.6075L12.5335 8.56367L7.97706 13.2608L18.2072 31.8961Z" fill="#222222"/>
<path fill-rule="evenodd" clip-rule="evenodd" d="M12.042 17.0695C12.2003 16.9813 12.4002 17.0381 12.4884 17.1964L16.2243 23.9017C16.3125 24.06 16.2556 24.2599 16.0973 24.3481C15.939 24.4363 15.7392 24.3794 15.651 24.2211L11.9151 17.5158C11.8269 17.3575 11.8837 17.1577 12.042 17.0695Z" fill="#222222"/>
<path d="M25.1201 30.2622L34.0234 12.665L29.4147 8.20615L19.9178 26.8585L25.1201 30.2622Z" fill="white"/>
<path fill-rule="evenodd" clip-rule="evenodd" d="M34.609 12.9613C34.7388 12.7047 34.6864 12.3934 34.4797 12.1934L29.8709 7.73451C29.7213 7.58975 29.5119 7.52457 29.3065 7.55887C29.1012 7.59317 28.9243 7.72287 28.8298 7.9084L19.3329 26.5608C19.181 26.8593 19.2782 27.2243 19.5585 27.4077L24.7608 30.8114C24.917 30.9136 25.1094 30.9444 25.2898 30.8962C25.4701 30.8479 25.6214 30.7251 25.7057 30.5585L34.609 12.9613ZM25.1201 30.2622L19.9177 26.8585L29.4146 8.20615L34.0234 12.665L25.1201 30.2622Z" fill="#222222"/>
<path fill-rule="evenodd" clip-rule="evenodd" d="M28.7557 12.6083C28.9186 12.6877 28.9862 12.8841 28.9068 13.047L26.2184 18.561C26.1389 18.7239 25.9425 18.7916 25.7796 18.7122C25.6167 18.6327 25.5491 18.4363 25.6285 18.2734L28.3169 12.7594C28.3964 12.5965 28.5928 12.5288 28.7557 12.6083Z" fill="#222222"/>
<path d="M28.0744 27.9858C28.0744 31.746 25.0261 34.7942 21.266 34.7942C17.5058 34.7942 14.4575 31.746 14.4575 27.9858C14.4575 24.2256 17.5058 21.1773 21.266 21.1773C25.0261 21.1773 28.0744 24.2256 28.0744 27.9858Z" fill="white"/>
<path fill-rule="evenodd" clip-rule="evenodd" d="M28.7306 27.9858C28.7306 32.1084 25.3886 35.4504 21.2659 35.4504C17.1433 35.4504 13.8013 32.1084 13.8013 27.9858C13.8013 23.8631 17.1433 20.5211 21.2659 20.5211C25.3886 20.5211 28.7306 23.8631 28.7306 27.9858ZM21.2659 34.7942C25.0261 34.7942 28.0744 31.746 28.0744 27.9858C28.0744 24.2256 25.0261 21.1773 21.2659 21.1773C17.5058 21.1773 14.4575 24.2256 14.4575 27.9858C14.4575 31.746 17.5058 34.7942 21.2659 34.7942Z" fill="#222222"/>
<path fill-rule="evenodd" clip-rule="evenodd" d="M25.6172 27.9853C25.6172 30.3888 23.6688 32.3371 21.2654 32.3371C18.862 32.3371 16.9136 30.3888 16.9136 27.9853C16.9136 25.5819 18.862 23.6335 21.2654 23.6335C23.6688 23.6335 25.6172 25.5819 25.6172 27.9853ZM21.2654 31.6809C23.3064 31.6809 24.961 30.0263 24.961 27.9853C24.961 25.9443 23.3064 24.2897 21.2654 24.2897C19.2244 24.2897 17.5698 25.9443 17.5698 27.9853C17.5698 30.0263 19.2244 31.6809 21.2654 31.6809Z" fill="#222222"/>
</svg>
