<svg width="42" height="43" viewBox="0 0 42 43" fill="none" xmlns="http://www.w3.org/2000/svg">
<path d="M7.41309 35.2044C7.41309 34.7247 7.80191 34.3359 8.28155 34.3359H33.7186C34.1983 34.3359 34.5871 34.7247 34.5871 35.2044C34.5871 35.684 34.1983 36.0728 33.7186 36.0728H8.28155C7.80191 36.0728 7.41309 35.684 7.41309 35.2044Z" fill="#222222"/>
<path d="M7.41309 7.41351C7.41309 6.93387 7.80191 6.54504 8.28155 6.54504H33.7186C34.1983 6.54504 34.5871 6.93387 34.5871 7.41351C34.5871 7.89315 34.1983 8.28197 33.7186 8.28197H8.28155C7.80191 8.28197 7.41309 7.89315 7.41309 7.41351Z" fill="#222222"/>
<path d="M10.6479 9.79906C10.6479 8.47434 11.7218 7.40044 13.0466 7.40044H28.9093C30.2341 7.40044 31.308 8.47434 31.308 9.79906V32.9039C31.308 34.2286 30.2341 35.3025 28.9093 35.3025H13.0466C11.7218 35.3025 10.6479 34.2286 10.6479 32.9039V9.79906Z" fill="white"/>
<path fill-rule="evenodd" clip-rule="evenodd" d="M13.0466 6.80078H28.9094C30.5653 6.80078 31.9077 8.14316 31.9077 9.79906V32.9039C31.9077 34.5598 30.5653 35.9022 28.9094 35.9022H13.0466C11.3907 35.9022 10.0483 34.5598 10.0483 32.9039V9.79906C10.0483 8.14316 11.3907 6.80078 13.0466 6.80078ZM13.0466 7.40044C11.7219 7.40044 10.648 8.47434 10.648 9.79906V32.9039C10.648 34.2286 11.7219 35.3025 13.0466 35.3025H28.9094C30.2341 35.3025 31.308 34.2286 31.308 32.9039V9.79906C31.308 8.47434 30.2341 7.40044 28.9094 7.40044H13.0466Z" fill="#222222"/>
<path d="M10.6479 31.9172H31.308V32.965H10.6479V31.9172Z" fill="#222222"/>
<path d="M8.7002 7.54859C8.7002 6.55504 9.50562 5.74962 10.4992 5.74962H31.4572C32.4507 5.74962 33.2561 6.55504 33.2561 7.54859V7.7167C33.2561 8.71024 32.4507 9.51567 31.4571 9.51567H10.4992C9.50562 9.51567 8.7002 8.71024 8.7002 7.7167V7.54859Z" fill="white"/>
<path fill-rule="evenodd" clip-rule="evenodd" d="M10.4992 5.14996H31.4572C32.7819 5.14996 33.8558 6.22386 33.8558 7.54859V7.7167C33.8558 9.04142 32.7819 10.1153 31.4572 10.1153H10.4992C9.17448 10.1153 8.10059 9.04142 8.10059 7.7167V7.54859C8.10059 6.22386 9.17449 5.14996 10.4992 5.14996ZM10.4992 5.74962C9.50567 5.74962 8.70024 6.55504 8.70024 7.54859V7.7167C8.70024 8.71024 9.50567 9.51567 10.4992 9.51567H31.4572C32.4507 9.51567 33.2562 8.71024 33.2562 7.7167V7.54859C33.2562 6.55504 32.4507 5.74962 31.4572 5.74962H10.4992Z" fill="#222222"/>
<path fill-rule="evenodd" clip-rule="evenodd" d="M26.5605 6.69112C26.5605 6.52553 26.6948 6.3913 26.8604 6.3913H32.1199C32.2854 6.3913 32.4197 6.52553 32.4197 6.69112C32.4197 6.85671 32.2854 6.99095 32.1199 6.99095H26.8604C26.6948 6.99095 26.5605 6.85671 26.5605 6.69112Z" fill="#222222"/>
<path d="M10.2583 9.51565H31.6975C32.2679 9.51565 32.7667 9.20925 33.0383 8.75208L8.93359 8.77839C9.2085 9.22097 9.69901 9.51565 10.2583 9.51565Z" fill="#222222"/>
<path d="M8.7002 35.0797C8.7002 34.0861 9.50562 33.2807 10.4992 33.2807H31.4572C32.4507 33.2807 33.2561 34.0861 33.2561 35.0797V35.4515C33.2561 36.445 32.4507 37.2504 31.4571 37.2504H10.4992C9.50562 37.2504 8.7002 36.445 8.7002 35.4515V35.0797Z" fill="white"/>
<path fill-rule="evenodd" clip-rule="evenodd" d="M10.4992 32.6811H31.4572C32.7819 32.6811 33.8558 33.755 33.8558 35.0797V35.4515C33.8558 36.7762 32.7819 37.8501 31.4572 37.8501H10.4992C9.17448 37.8501 8.10059 36.7762 8.10059 35.4515V35.0797C8.10059 33.755 9.17449 32.6811 10.4992 32.6811ZM10.4992 33.2807C9.50567 33.2807 8.70024 34.0861 8.70024 35.0797V35.4515C8.70024 36.445 9.50567 37.2504 10.4992 37.2504H31.4572C32.4507 37.2504 33.2562 36.445 33.2562 35.4515V35.0797C33.2562 34.0861 32.4507 33.2807 31.4572 33.2807H10.4992Z" fill="#222222"/>
<path fill-rule="evenodd" clip-rule="evenodd" d="M9.41846 34.482C9.41846 34.3164 9.55269 34.1821 9.71828 34.1821H17.0556C17.2212 34.1821 17.3554 34.3164 17.3554 34.482C17.3554 34.6476 17.2212 34.7818 17.0556 34.7818H9.71828C9.55269 34.7818 9.41846 34.6476 9.41846 34.482Z" fill="#222222"/>
<path fill-rule="evenodd" clip-rule="evenodd" d="M29.7744 35.9412C29.7744 35.7756 29.9087 35.6414 30.0742 35.6414H33.2559C33.4215 35.6414 33.5557 35.7756 33.5557 35.9412C33.5557 36.1068 33.4215 36.241 33.2559 36.241H30.0742C29.9087 36.241 29.7744 36.1068 29.7744 35.9412Z" fill="#222222"/>
<path d="M10.2583 37.3065H31.6975C32.2679 37.3065 32.7667 37.0001 33.0383 36.5429L8.93359 36.5692C9.2085 37.0118 9.69901 37.3065 10.2583 37.3065Z" fill="#222222"/>
<path fill-rule="evenodd" clip-rule="evenodd" d="M12.9898 12.7947C12.9898 12.6291 13.124 12.4949 13.2896 12.4949H28.8408C29.0064 12.4949 29.1406 12.6291 29.1406 12.7947C29.1406 12.9603 29.0064 13.0946 28.8408 13.0946H13.2896C13.124 13.0946 12.9898 12.9603 12.9898 12.7947Z" fill="#222222"/>
<path fill-rule="evenodd" clip-rule="evenodd" d="M12.9897 17.9568C12.9897 17.7912 13.124 17.657 13.2896 17.657H28.8408C29.0063 17.657 29.1406 17.7912 29.1406 17.9568C29.1406 18.1224 29.0063 18.2566 28.8408 18.2566H13.2896C13.124 18.2566 12.9897 18.1224 12.9897 17.9568Z" fill="#222222"/>
<path fill-rule="evenodd" clip-rule="evenodd" d="M12.9897 19.5476C12.9897 19.382 13.124 19.2478 13.2896 19.2478H28.8408C29.0063 19.2478 29.1406 19.382 29.1406 19.5476C29.1406 19.7132 29.0063 19.8475 28.8408 19.8475H13.2896C13.124 19.8475 12.9897 19.7132 12.9897 19.5476Z" fill="#222222"/>
<path fill-rule="evenodd" clip-rule="evenodd" d="M12.9897 21.1385C12.9897 20.9729 13.124 20.8387 13.2896 20.8387H28.8408C29.0063 20.8387 29.1406 20.9729 29.1406 21.1385C29.1406 21.3041 29.0063 21.4383 28.8408 21.4383H13.2896C13.124 21.4383 12.9897 21.3041 12.9897 21.1385Z" fill="#222222"/>
<path fill-rule="evenodd" clip-rule="evenodd" d="M12.9897 22.6968C12.9897 22.5313 13.124 22.397 13.2896 22.397H22.6073C22.7729 22.397 22.9071 22.5313 22.9071 22.6968C22.9071 22.8624 22.7729 22.9967 22.6073 22.9967H13.2896C13.124 22.9967 12.9897 22.8624 12.9897 22.6968Z" fill="#222222"/>
<path fill-rule="evenodd" clip-rule="evenodd" d="M12.9897 14.3495C12.9897 14.1839 13.124 14.0497 13.2896 14.0497H21.7785C21.9441 14.0497 22.0784 14.1839 22.0784 14.3495C22.0784 14.5151 21.9441 14.6494 21.7785 14.6494H13.2896C13.124 14.6494 12.9897 14.5151 12.9897 14.3495Z" fill="#222222"/>
<path fill-rule="evenodd" clip-rule="evenodd" d="M12.9897 28.6021C12.9897 28.4365 13.124 28.3023 13.2896 28.3023H17.6229C17.7885 28.3023 17.9227 28.4365 17.9227 28.6021C17.9227 28.7677 17.7885 28.9019 17.6229 28.9019H13.2896C13.124 28.9019 12.9897 28.7677 12.9897 28.6021Z" fill="#222222"/>
<path fill-rule="evenodd" clip-rule="evenodd" d="M25.1332 26.9804C25.2456 26.8679 25.3981 26.8047 25.5572 26.8047H27.5604C27.8916 26.8047 28.16 27.0732 28.16 27.4044V30.4323C28.16 30.6588 28.0324 30.8659 27.8302 30.9678C27.6279 31.0697 27.3855 31.049 27.2035 30.9141L26.5588 30.4366L25.9141 30.9141C25.7321 31.049 25.4897 31.0697 25.2874 30.9678C25.0851 30.8659 24.9575 30.6588 24.9575 30.4323V27.4044C24.9575 27.2454 25.0207 27.0928 25.1332 26.9804ZM26.5588 29.6904L27.5604 30.4323V27.4044H25.5572V30.4323L26.5588 29.6904Z" fill="#222222"/>
<path d="M28.9054 26.5712C28.9054 26.8585 28.5691 27.0133 28.4722 27.2666C28.3738 27.5238 28.5136 27.8788 28.3345 28.0816C28.1175 28.3275 27.7282 28.243 27.4242 28.3774C27.1421 28.5022 26.9502 28.8547 26.6219 28.8547C26.2936 28.8547 26.1017 28.5022 25.8196 28.3774C25.5156 28.243 25.1263 28.3275 24.9093 28.0816C24.7302 27.8788 24.87 27.5238 24.7716 27.2666C24.6747 27.0133 24.3384 26.8585 24.3384 26.5712C24.3384 26.2839 24.6747 26.1291 24.7716 25.8758C24.8589 25.6476 24.6985 25.3167 24.8502 25.1304C25.052 24.8826 25.3047 24.9612 25.5924 24.8156C25.9018 24.6591 26.2515 24.2877 26.6219 24.2877C26.9923 24.2877 27.342 24.6591 27.6514 24.8156C27.9391 24.9612 28.1918 24.8826 28.3936 25.1304C28.5453 25.3167 28.3849 25.6476 28.4722 25.8758C28.5691 26.1291 28.9054 26.2839 28.9054 26.5712Z" fill="white"/>
<path fill-rule="evenodd" clip-rule="evenodd" d="M26.0024 24.9136C25.9189 24.9715 25.8248 25.0341 25.7278 25.0832C25.5756 25.1602 25.4172 25.193 25.3161 25.214C25.2939 25.2186 25.2744 25.2226 25.2584 25.2264C25.1659 25.2484 25.126 25.2681 25.0858 25.316C25.0853 25.32 25.0772 25.3521 25.0858 25.4647C25.0866 25.4758 25.0876 25.4882 25.0887 25.5016C25.0932 25.555 25.0989 25.6236 25.0992 25.6875C25.0997 25.7707 25.0924 25.8764 25.0517 25.983C25.0109 26.0896 24.949 26.1757 24.8941 26.242C24.858 26.2857 24.8135 26.3336 24.7779 26.372C24.7639 26.387 24.7512 26.4006 24.741 26.412C24.6458 26.5171 24.6382 26.5518 24.6382 26.5712C24.6382 26.5906 24.6458 26.6253 24.741 26.7304C24.7512 26.7418 24.7639 26.7554 24.7779 26.7704C24.8135 26.8088 24.858 26.8567 24.8941 26.9004C24.949 26.9667 25.0109 27.0528 25.0517 27.1595C25.0924 27.2659 25.1047 27.3719 25.1089 27.4594C25.1119 27.5208 25.1111 27.5886 25.1105 27.6437C25.1103 27.6625 25.1101 27.6799 25.11 27.695C25.1098 27.8486 25.1281 27.8764 25.1341 27.8832C25.1681 27.9219 25.2254 27.9503 25.38 27.9754C25.4024 27.9791 25.4286 27.9827 25.4576 27.9867C25.589 28.005 25.7783 28.0313 25.9409 28.1032C26.0461 28.1498 26.1346 28.2136 26.206 28.2712C26.2426 28.3007 26.2918 28.3432 26.3334 28.3793C26.3583 28.4008 26.3805 28.42 26.3956 28.4327C26.5134 28.531 26.5717 28.5549 26.6219 28.5549C26.6722 28.5549 26.7305 28.531 26.8482 28.4327C26.8634 28.42 26.8856 28.4008 26.9105 28.3793C26.9521 28.3432 27.0013 28.3007 27.0379 28.2712C27.1093 28.2136 27.1977 28.1498 27.303 28.1032C27.4656 28.0313 27.6548 28.005 27.7863 27.9867C27.8152 27.9827 27.8414 27.9791 27.8639 27.9754C28.0184 27.9503 28.0757 27.9219 28.1098 27.8832C28.1158 27.8764 28.1341 27.8486 28.1338 27.695C28.1338 27.6799 28.1336 27.6625 28.1334 27.6437C28.1327 27.5886 28.1319 27.5208 28.1349 27.4594C28.1392 27.3719 28.1515 27.2659 28.1922 27.1595C28.233 27.0528 28.2949 26.9667 28.3497 26.9004C28.3859 26.8567 28.4303 26.8088 28.466 26.7704C28.48 26.7554 28.4926 26.7418 28.5029 26.7304C28.598 26.6253 28.6056 26.5906 28.6056 26.5712C28.6056 26.5518 28.598 26.5171 28.5029 26.412C28.4926 26.4006 28.48 26.387 28.466 26.372C28.4303 26.3336 28.3859 26.2857 28.3497 26.242C28.2949 26.1757 28.233 26.0896 28.1922 25.983C28.1514 25.8764 28.1441 25.7707 28.1446 25.6875C28.145 25.6236 28.1507 25.555 28.1551 25.5016C28.1562 25.4882 28.1573 25.4758 28.1581 25.4647C28.1667 25.3522 28.1586 25.32 28.158 25.316C28.1179 25.2681 28.078 25.2484 27.9855 25.2264C27.9695 25.2226 27.95 25.2186 27.9277 25.214C27.8266 25.193 27.6683 25.1602 27.516 25.0832C27.4191 25.0341 27.3249 24.9715 27.2414 24.9136C27.2128 24.8938 27.1858 24.8748 27.1595 24.8564C27.1036 24.8171 27.0514 24.7804 26.9958 24.7441C26.8291 24.6354 26.713 24.5875 26.6219 24.5875C26.5308 24.5875 26.4148 24.6354 26.2481 24.7441C26.1925 24.7804 26.1402 24.8171 26.0844 24.8564C26.0581 24.8748 26.031 24.8938 26.0024 24.9136ZM25.9205 24.2418C26.0986 24.1257 26.3426 23.9879 26.6219 23.9879C26.9012 23.9879 27.1452 24.1257 27.3233 24.2418C27.3879 24.2839 27.4542 24.3305 27.514 24.3725C27.5382 24.3895 27.5613 24.4057 27.5828 24.4206C27.6634 24.4765 27.729 24.5189 27.7867 24.5481C27.8617 24.586 27.9224 24.599 28.0127 24.6182C28.0453 24.6252 28.0817 24.6329 28.124 24.643C28.2779 24.6795 28.4656 24.744 28.6261 24.9411C28.7847 25.1359 28.7658 25.3823 28.7566 25.503C28.7564 25.5054 28.7562 25.5078 28.756 25.5101C28.7545 25.5304 28.753 25.5487 28.7516 25.5657C28.7476 25.6148 28.7445 25.6523 28.7443 25.691C28.744 25.7399 28.7494 25.7612 28.7523 25.7687C28.7599 25.7887 28.7764 25.817 28.8118 25.8599C28.837 25.8903 28.8606 25.9156 28.8895 25.9467C28.9065 25.9649 28.9253 25.9851 28.9474 26.0095C29.0447 26.117 29.2053 26.3033 29.2053 26.5712C29.2053 26.8391 29.0447 27.0254 28.9474 27.1329C28.9253 27.1573 28.9065 27.1775 28.8895 27.1957C28.8606 27.2268 28.837 27.2521 28.8118 27.2825C28.7764 27.3254 28.7599 27.3537 28.7523 27.3737C28.7438 27.3959 28.7367 27.4306 28.7339 27.4885C28.7318 27.5308 28.7323 27.5699 28.7328 27.6176C28.7331 27.6406 28.7334 27.6656 28.7335 27.694C28.7337 27.8329 28.7324 28.084 28.5594 28.2801C28.3764 28.4874 28.1305 28.5396 27.9601 28.5673C27.9094 28.5755 27.8647 28.582 27.8243 28.5879C27.7049 28.6052 27.6243 28.6168 27.5454 28.6517C27.5096 28.6675 27.4683 28.6945 27.4141 28.7381C27.378 28.7672 27.3524 28.7896 27.3233 28.8151C27.2985 28.8368 27.2711 28.8608 27.2325 28.893C27.1017 29.0022 26.8999 29.1546 26.6219 29.1546C26.3439 29.1546 26.1421 29.0022 26.0113 28.893C25.9727 28.8608 25.9453 28.8368 25.9205 28.8151C25.8915 28.7896 25.8659 28.7672 25.8297 28.7381C25.7756 28.6945 25.7342 28.6675 25.6984 28.6517C25.6196 28.6168 25.539 28.6052 25.4195 28.5879C25.3792 28.582 25.3344 28.5755 25.2837 28.5673C25.1133 28.5396 24.8674 28.4874 24.6845 28.2801C24.5115 28.084 24.5101 27.8329 24.5104 27.694C24.5104 27.6656 24.5107 27.6406 24.511 27.6176C24.5116 27.5699 24.5121 27.5308 24.51 27.4885C24.5072 27.4306 24.5001 27.3959 24.4916 27.3737C24.4839 27.3537 24.4675 27.3254 24.432 27.2825C24.4068 27.2521 24.3833 27.2268 24.3543 27.1957C24.3373 27.1775 24.3185 27.1573 24.2964 27.1329C24.1992 27.0254 24.0386 26.8391 24.0386 26.5712C24.0386 26.3033 24.1992 26.117 24.2964 26.0095C24.3185 25.9851 24.3373 25.9649 24.3543 25.9467C24.3833 25.9156 24.4068 25.8903 24.432 25.8599C24.4675 25.817 24.4839 25.7887 24.4916 25.7687C24.4945 25.7612 24.4999 25.7399 24.4996 25.691C24.4994 25.6523 24.4963 25.6148 24.4923 25.5657C24.4909 25.5487 24.4894 25.5304 24.4878 25.5101C24.4876 25.5078 24.4875 25.5054 24.4873 25.503C24.478 25.3823 24.4591 25.1359 24.6177 24.9411C24.7782 24.744 24.966 24.6795 25.1199 24.643C25.1622 24.6329 25.1986 24.6252 25.2311 24.6182C25.3215 24.599 25.3821 24.586 25.4571 24.5481C25.5148 24.5189 25.5804 24.4765 25.6611 24.4206C25.6825 24.4057 25.7056 24.3895 25.7298 24.3725C25.7896 24.3305 25.856 24.2839 25.9205 24.2418Z" fill="#222222"/>
<path fill-rule="evenodd" clip-rule="evenodd" d="M27.7498 26.5363C27.7498 27.1757 27.2364 27.7042 26.5907 27.7042C25.945 27.7042 25.4316 27.1757 25.4316 26.5363C25.4316 25.8969 25.945 25.3683 26.5907 25.3683C27.2364 25.3683 27.7498 25.8969 27.7498 26.5363ZM26.5907 27.2382C26.9734 27.2382 27.2837 26.9239 27.2837 26.5363C27.2837 26.1486 26.9734 25.8344 26.5907 25.8344C26.208 25.8344 25.8977 26.1486 25.8977 26.5363C25.8977 26.9239 26.208 27.2382 26.5907 27.2382Z" fill="#222222"/>
</svg>
