<svg width="42" height="43" viewBox="0 0 42 43" fill="none" xmlns="http://www.w3.org/2000/svg">
<path fill-rule="evenodd" clip-rule="evenodd" d="M12.1543 22.3711L19.8344 25.2548C20.4325 25.4794 21.092 25.4781 21.6892 25.2513L29.1909 22.4018L29.1909 27.8813C29.1909 27.8864 29.191 27.8916 29.191 27.8968C29.191 29.5849 25.3772 30.9535 20.6727 30.9535C15.9681 30.9535 12.1543 29.5849 12.1543 27.8968C12.1543 27.8951 12.1543 27.8933 12.1543 27.8916C12.1543 27.8882 12.1543 27.8847 12.1543 27.8813V22.3711Z" fill="#222222"/>
<path d="M36.1152 26.4892C36.3714 26.0187 36.6614 25.4075 36.9067 24.8641C37.0977 24.441 37.6413 24.3478 37.8752 24.7488C38.2848 25.4509 38.5548 26.2886 38.6892 26.8468C38.7319 27.0241 38.6943 27.2164 38.558 27.3376C37.98 27.8515 37.0877 27.7138 36.3945 27.451C36.0228 27.3101 35.9251 26.8384 36.1152 26.4892Z" fill="white"/>
<path fill-rule="evenodd" clip-rule="evenodd" d="M37.4198 24.8225C37.3467 24.8326 37.2567 24.8866 37.2059 24.9991C36.9595 25.545 36.6656 26.1649 36.4035 26.6462C36.348 26.748 36.336 26.8673 36.3616 26.9647C36.3861 27.0578 36.4391 27.117 36.511 27.1442C36.8354 27.2672 37.1918 27.3549 37.5222 27.3575C37.8504 27.3601 38.1297 27.2795 38.3401 27.0924C38.3636 27.0715 38.3924 27.0153 38.3703 26.9237C38.2402 26.3831 37.9797 25.5788 37.5919 24.9141C37.5449 24.8336 37.4831 24.8138 37.4198 24.8225ZM37.3301 24.1724C37.6448 24.129 37.9718 24.263 38.1587 24.5834L37.8753 24.7488M37.3301 24.1724C37.0252 24.2144 36.7479 24.4186 36.6077 24.7291ZM38.1587 24.5834C38.5902 25.323 38.8697 26.1942 39.0083 26.77C39.0717 27.033 39.0252 27.3614 38.7762 27.5828C38.4086 27.9096 37.9527 28.0172 37.517 28.0137C37.0834 28.0103 36.6471 27.8976 36.2783 27.7578C35.6625 27.5243 35.5742 26.7968 35.8272 26.3323C36.0775 25.8725 36.3636 25.2701 36.6077 24.7291" fill="#222222"/>
<path fill-rule="evenodd" clip-rule="evenodd" d="M36.8328 23.9967C36.973 23.882 37.1797 23.9026 37.2945 24.0429C37.407 24.1804 37.4649 24.3826 37.5011 24.5507C37.5411 24.7363 37.5686 24.9532 37.5875 25.1712C37.6256 25.6084 37.6321 26.0816 37.6266 26.3853C37.6233 26.5665 37.4738 26.7107 37.2926 26.7074C37.1114 26.7041 36.9672 26.5545 36.9705 26.3734C36.9757 26.0858 36.9693 25.6365 36.9338 25.2282C36.9159 25.0235 36.8914 24.8368 36.8596 24.689C36.8437 24.6151 36.8271 24.5567 36.8111 24.5134C36.7959 24.4726 36.7858 24.4578 36.7859 24.4577C36.7859 24.4576 36.7861 24.4579 36.7866 24.4585C36.6718 24.3182 36.6925 24.1115 36.8328 23.9967Z" fill="#222222"/>
<path fill-rule="evenodd" clip-rule="evenodd" d="M37.2344 17.6628C37.5062 17.6628 37.7266 17.8832 37.7266 18.155V23.6056C37.7266 23.8774 37.5062 24.0978 37.2344 24.0978C36.9625 24.0978 36.7422 23.8774 36.7422 23.6056V18.155C36.7422 17.8832 36.9625 17.6628 37.2344 17.6628Z" fill="#222222"/>
<path d="M38.5891 23.7991C38.5891 24.5473 37.9826 25.1537 37.2345 25.1537C36.4864 25.1537 35.8799 24.5473 35.8799 23.7991C35.8799 23.051 36.4864 22.4445 37.2345 22.4445C37.9826 22.4445 38.5891 23.051 38.5891 23.7991Z" fill="#222222"/>
<path d="M19.7385 11.3608L3.83431 17.6981C3.54037 17.8152 3.54455 18.2327 3.84077 18.344L19.7904 24.3327C20.4216 24.5697 21.1176 24.5684 21.7479 24.329L37.5055 18.3435C37.8001 18.2316 37.8043 17.8164 37.512 17.6986L21.7996 11.3649C21.1386 11.0985 20.4005 11.097 19.7385 11.3608Z" fill="#222222"/>
<path fill-rule="evenodd" clip-rule="evenodd" d="M32.8177 18.7198C32.8798 18.8901 32.7922 19.0784 32.6219 19.1405L21.3982 23.2366C21.228 23.2987 21.0396 23.211 20.9775 23.0408C20.9154 22.8706 21.003 22.6822 21.1732 22.6201L32.397 18.5241C32.5672 18.4619 32.7556 18.5496 32.8177 18.7198Z" fill="white"/>
<path fill-rule="evenodd" clip-rule="evenodd" d="M6.42055 17.9602C6.48296 17.7901 6.67147 17.7027 6.84161 17.7652L10.5926 19.1411C10.7628 19.2036 10.8501 19.3921 10.7877 19.5622C10.7253 19.7323 10.5368 19.8197 10.3666 19.7572L6.6156 18.3813C6.44547 18.3189 6.35814 18.1303 6.42055 17.9602Z" fill="white"/>
</svg>
