<svg width="55" height="54" viewBox="0 0 55 54" fill="none" xmlns="http://www.w3.org/2000/svg">
<path d="M30.0539 45.0545H21.4518C21.2236 45.0545 21.0048 44.9645 20.8435 44.8042C20.6822 44.6438 20.5916 44.4264 20.5916 44.1997C20.5916 43.973 20.6822 43.7555 20.8435 43.5952C21.0048 43.4349 21.2236 43.3448 21.4518 43.3448H30.0539C30.282 43.3448 30.5008 43.4349 30.6622 43.5952C30.8235 43.7555 30.9141 43.973 30.9141 44.1997C30.9141 44.4264 30.8235 44.6438 30.6622 44.8042C30.5008 44.9645 30.282 45.0545 30.0539 45.0545Z" fill="#73DDFF"/>
<path d="M14.5701 52.748L21.4518 30.5222H25.7528L19.7313 52.748H14.5701Z" fill="#3592FF"/>
<path d="M31.7743 52.748L25.7528 30.5222H30.0539L36.9356 52.748H31.7743Z" fill="#3592FF"/>
<path d="M9.89138 30.458L8.7922 25.4467C8.76829 25.3369 8.72282 25.2329 8.65841 25.1406C8.594 25.0483 8.5119 24.9696 8.41683 24.9089C8.32175 24.8482 8.21555 24.8067 8.10432 24.7868C7.99309 24.7669 7.879 24.769 7.7686 24.793L1.04483 26.249C0.822008 26.2975 0.627661 26.4319 0.504429 26.6227C0.381197 26.8135 0.339144 27.045 0.387495 27.2666L1.4867 32.2779C1.53566 32.4992 1.67085 32.6922 1.86268 32.8147C2.05452 32.9372 2.28738 32.9792 2.5103 32.9315L9.23407 31.4756C9.45689 31.4271 9.65123 31.2927 9.77446 31.1019C9.89768 30.9111 9.93973 30.6796 9.89138 30.458Z" fill="#3FA3FF"/>
<path d="M26.5932 30.3403L24.0289 18.6472C23.9802 18.4257 23.8452 18.2324 23.6534 18.1096C23.4609 17.9883 23.2283 17.9466 23.0053 17.9935L8.71733 21.0881C8.38614 21.1598 8.0724 21.2956 7.79403 21.4878C7.51566 21.6799 7.2781 21.9247 7.09494 22.2081C6.91177 22.4916 6.78658 22.8081 6.72652 23.1396C6.66645 23.4711 6.67268 23.8111 6.74486 24.1402L8.57659 32.4924C8.70192 33.0634 9.01966 33.5749 9.47724 33.9421C9.93483 34.3093 10.5048 34.5103 11.093 34.5118C11.2794 34.5115 11.4652 34.4916 11.6474 34.4525L25.9358 31.3579C26.1588 31.3095 26.3533 31.1752 26.4765 30.9843C26.5998 30.7935 26.6418 30.5618 26.5932 30.3403Z" fill="#68C0E6"/>
<path d="M53.8877 18.3049C53.5414 16.7311 52.7544 15.2866 51.6176 14.1381C50.4808 12.9895 49.0404 12.1837 47.4627 11.8136C45.8849 11.4434 44.234 11.524 42.7003 12.046C41.1666 12.5681 39.8127 13.5102 38.7946 14.764C37.7765 16.0177 37.1358 17.5318 36.9463 19.1318C36.7568 20.7317 37.0262 22.3523 37.7236 23.8067C38.4209 25.261 39.5177 26.4899 40.8875 27.3515C42.2573 28.2131 43.8443 28.6725 45.4654 28.6765C46.0871 28.676 46.7069 28.6094 47.3143 28.4778C49.5434 27.9947 51.488 26.6517 52.7207 24.744C53.9534 22.8362 54.3732 20.5201 53.8877 18.3049Z" fill="#3FA3FF"/>
<path d="M42.9293 28.5521L39.6321 13.5181C39.6082 13.4083 39.5627 13.3043 39.4982 13.212C39.4338 13.1197 39.3516 13.041 39.2565 12.9803C39.1614 12.9195 39.0552 12.8781 38.9439 12.8582C38.8327 12.8383 38.7185 12.8405 38.6081 12.8645L24.3197 15.9599C23.9886 16.0315 23.6749 16.1673 23.3967 16.3594C23.1184 16.5515 22.8809 16.7963 22.6978 17.0796C22.5147 17.363 22.3896 17.6794 22.3296 18.0108C22.2696 18.3422 22.2759 18.6821 22.3481 19.0111L24.9124 30.7042C25.0377 31.2753 25.3555 31.7867 25.813 32.1539C26.2706 32.5211 26.8406 32.7221 27.4287 32.7236C27.6151 32.7233 27.801 32.7034 27.9832 32.6643L42.2716 29.5697C42.4945 29.5213 42.689 29.3869 42.8123 29.1961C42.9357 29.0053 42.9777 28.7737 42.9293 28.5521Z" fill="#3FCBFF"/>
<path d="M2.70808 34.6921C2.51192 34.6918 2.32173 34.625 2.16903 34.5026C2.01633 34.3802 1.91028 34.2097 1.86846 34.0193L0.0211755 25.5961C-0.00385956 25.486 -0.00672713 25.3722 0.0127382 25.261C0.0322034 25.1499 0.0736165 25.0436 0.13459 24.9485C0.195563 24.8533 0.27489 24.7711 0.367997 24.7065C0.461104 24.642 0.566149 24.5964 0.677076 24.5723C0.788003 24.5483 0.902617 24.5464 1.01431 24.5666C1.126 24.5868 1.23257 24.6288 1.32785 24.6901C1.42314 24.7514 1.50527 24.8309 1.5695 24.9239C1.63374 25.0169 1.6788 25.1217 1.70211 25.2321L3.5494 33.6552C3.57709 33.7801 3.57617 33.9096 3.54673 34.0341C3.51729 34.1586 3.46006 34.2749 3.37929 34.3744C3.29852 34.474 3.19627 34.5542 3.08009 34.6092C2.96391 34.6642 2.83676 34.6925 2.70808 34.6921Z" fill="#68C0E6"/>
<path d="M25.7528 36.5061C29.0784 36.5061 31.7743 33.827 31.7743 30.5222C31.7743 27.2174 29.0784 24.5383 25.7528 24.5383C22.4272 24.5383 19.7313 27.2174 19.7313 30.5222C19.7313 33.827 22.4272 36.5061 25.7528 36.5061Z" fill="#3FA3FF"/>
<path d="M39.5162 53.6029H11.9894C11.7612 53.6029 11.5424 53.5128 11.3811 53.3525C11.2198 53.1922 11.1292 52.9747 11.1292 52.748C11.1292 52.5213 11.2198 52.3039 11.3811 52.1436C11.5424 51.9833 11.7612 51.8932 11.9894 51.8932H39.5162C39.7443 51.8932 39.9631 51.9833 40.1244 52.1436C40.2857 52.3039 40.3764 52.5213 40.3764 52.748C40.3764 52.9747 40.2857 53.1922 40.1244 53.3525C39.9631 53.5128 39.7443 53.6029 39.5162 53.6029Z" fill="#73DDFF"/>
<path d="M36.5273 20.2942C36.3311 20.2939 36.1409 20.227 35.9881 20.1047C35.8354 19.9823 35.7292 19.8118 35.6872 19.6214L35.321 17.9509C35.2724 17.7293 35.3144 17.4976 35.4378 17.3067C35.5611 17.1159 35.7557 16.9816 35.9787 16.9333C36.2018 16.885 36.4349 16.9268 36.627 17.0494C36.819 17.1719 36.9542 17.3653 37.0028 17.5869L37.369 19.2574C37.3967 19.3823 37.3957 19.5118 37.3662 19.6363C37.3367 19.7607 37.2794 19.8771 37.1986 19.9766C37.1178 20.0761 37.0155 20.1563 36.8993 20.2113C36.7831 20.2663 36.656 20.2946 36.5273 20.2942Z" fill="#68C0E6"/>
<path d="M33.1654 21.0222C32.9692 21.0219 32.779 20.955 32.6262 20.8327C32.4734 20.7103 32.3673 20.5398 32.3253 20.3494L31.959 18.6789C31.935 18.5692 31.9329 18.4558 31.953 18.3453C31.973 18.2348 32.0148 18.1292 32.0758 18.0347C32.1369 17.9403 32.2161 17.8586 32.3089 17.7946C32.4018 17.7305 32.5064 17.6852 32.6168 17.6613C32.7272 17.6374 32.8413 17.6354 32.9525 17.6553C33.0638 17.6752 33.17 17.7167 33.265 17.7774C33.3601 17.8381 33.4423 17.9168 33.5067 18.009C33.5712 18.1013 33.6168 18.2052 33.6408 18.315L34.0071 19.9854C34.0347 20.1103 34.0337 20.2398 34.0042 20.3643C33.9747 20.4888 33.9175 20.6051 33.8367 20.7046C33.7559 20.8041 33.6536 20.8844 33.5374 20.9393C33.4212 20.9943 33.2941 21.0226 33.1654 21.0222Z" fill="#68C0E6"/>
<path d="M12.3921 31.4396C12.18 31.4394 11.9754 31.3613 11.8177 31.2203C11.66 31.0793 11.5602 30.8853 11.5376 30.6757C11.515 30.4661 11.5711 30.2555 11.6952 30.0845C11.8193 29.9135 12.0026 29.7941 12.2099 29.7492L13.8908 29.3852C14.1138 29.3369 14.347 29.3787 14.539 29.5013C14.7311 29.6238 14.8662 29.8172 14.9148 30.0388C14.9634 30.2605 14.9214 30.4922 14.798 30.683C14.6747 30.8739 14.4801 31.0082 14.2571 31.0565L12.5761 31.4204C12.5157 31.4334 12.454 31.4398 12.3921 31.4396Z" fill="#3FA3FF"/>
<path d="M20.2084 6.73037C18.6708 5.71456 17.481 4.25746 16.7974 2.55301L16.2287 1.14053C16.1649 0.981848 16.0548 0.845804 15.9124 0.749968C15.7701 0.654132 15.6021 0.602905 15.4302 0.602905C15.2583 0.602905 15.0903 0.654132 14.948 0.749968C14.8056 0.845804 14.6955 0.981848 14.6317 1.14053L14.0626 2.55301C13.3793 4.25751 12.1896 5.71466 10.652 6.73037C10.5341 6.80843 10.4375 6.91419 10.3707 7.03827C10.3039 7.16234 10.2689 7.30089 10.2689 7.44162C10.2689 7.58235 10.3039 7.7209 10.3707 7.84498C10.4375 7.96906 10.5341 8.07482 10.652 8.15287C12.1896 9.16868 13.3794 10.6258 14.063 12.3302L14.6317 13.7427C14.6955 13.9014 14.8056 14.0374 14.948 14.1333C15.0903 14.2291 15.2583 14.2803 15.4302 14.2803C15.6021 14.2803 15.7701 14.2291 15.9124 14.1333C16.0548 14.0374 16.1649 13.9014 16.2287 13.7427L16.7978 12.3302C17.4811 10.6257 18.6708 9.16855 20.2084 8.15282C20.3262 8.07477 20.4229 7.969 20.4897 7.84493C20.5565 7.72085 20.5915 7.5823 20.5915 7.44157C20.5915 7.30084 20.5565 7.16229 20.4897 7.03821C20.4229 6.91414 20.3262 6.80843 20.2084 6.73037Z" fill="#FFF61F"/>
<path d="M54.617 40.0691C53.0792 39.0536 51.8894 37.5964 51.2064 35.8917L50.6377 34.4793C50.5738 34.3206 50.4636 34.1845 50.3212 34.0887C50.1788 33.9929 50.0107 33.9417 49.8388 33.9417C49.6668 33.9417 49.4987 33.9929 49.3563 34.0887C49.2139 34.1845 49.1037 34.3206 49.0399 34.4793L48.4712 35.8917C47.7881 37.5964 46.5984 39.0536 45.0606 40.0691C44.9427 40.1472 44.8461 40.2529 44.7793 40.377C44.7125 40.5011 44.6775 40.6396 44.6775 40.7804C44.6775 40.9211 44.7125 41.0596 44.7793 41.1837C44.8461 41.3078 44.9427 41.4136 45.0606 41.4916C46.5984 42.5071 47.7881 43.9643 48.4712 45.669L49.0399 47.0815C49.1037 47.2401 49.2139 47.3762 49.3563 47.472C49.4987 47.5678 49.6668 47.6191 49.8388 47.6191C50.0107 47.6191 50.1788 47.5678 50.3212 47.472C50.4636 47.3762 50.5738 47.2401 50.6377 47.0815L51.2064 45.669C51.8894 43.9643 53.0792 42.507 54.617 41.4916C54.7348 41.4135 54.8314 41.3077 54.8983 41.1837C54.9651 41.0596 55 40.921 55 40.7803C55 40.6396 54.9651 40.501 54.8983 40.377C54.8314 40.2529 54.7348 40.1472 54.617 40.0691Z" fill="#FFF61F"/>
<path d="M48.1553 28.2949L44.4919 11.5914C44.4439 11.3719 44.3528 11.1639 44.2239 10.9793C44.095 10.7948 43.9307 10.6373 43.7405 10.5159C43.5503 10.3945 43.3379 10.3115 43.1154 10.2718C42.8929 10.232 42.6647 10.2362 42.4438 10.2841L39.082 11.012C38.6363 11.1088 38.2475 11.3774 38.001 11.7589C37.7545 12.1404 37.6704 12.6034 37.7673 13.0464L41.4307 29.7517C41.5149 30.1327 41.7274 30.4736 42.0331 30.7183C42.3387 30.963 42.7192 31.0967 43.1117 31.0974C43.2348 31.0971 43.3576 31.0839 43.4779 31.0582L46.8407 30.3302L46.8415 30.3294C47.2866 30.2316 47.6747 29.9628 47.9209 29.5816C48.167 29.2003 48.2514 28.7378 48.1553 28.2949Z" fill="#68C0E6"/>
</svg>
